<svg width="23" height="22" viewBox="0 0 23 22" fill="none" xmlns="http://www.w3.org/2000/svg">
<g clip-path="url(#clip0_33_243)">
<path d="M4.23804 21.1823C5.40991 21.1823 8.32983 19.903 9.98999 18.7116C10.156 18.5944 10.2927 18.5456 10.4295 18.5456C10.5563 18.5554 10.6833 18.5651 10.8103 18.5651C17.8513 18.5651 22.5192 14.5612 22.5192 9.698C22.5192 4.78589 17.5975 0.821045 11.445 0.821045C5.29273 0.821045 0.37085 4.78589 0.37085 9.698C0.37085 12.823 2.29468 15.5671 5.42944 17.2468C5.57593 17.3249 5.62476 17.4714 5.54663 17.6179C4.99976 18.5163 4.02319 19.5905 3.6521 20.0788C3.27124 20.5671 3.48608 21.1823 4.23804 21.1823Z" fill="white"/>
</g>
<defs>
<clipPath id="clip0_33_243">
<rect width="22.1484" height="20.3613" fill="white" transform="translate(0.37085 0.821045)"/>
</clipPath>
</defs>
</svg>
