<svg width="44" height="42" viewBox="0 0 44 42" fill="none" xmlns="http://www.w3.org/2000/svg">
<g clip-path="url(#clip0_33_248)">
<path d="M23.8836 32.0051C24.3322 32.3564 24.9011 32.2357 25.5795 31.7417L31.3672 27.4717L37.1658 31.7417C37.8441 32.2357 38.4021 32.3564 38.8616 32.0051C39.3102 31.6648 39.4087 31.105 39.1352 30.3037L36.8486 23.4761L42.6909 19.261C43.3693 18.778 43.6428 18.2731 43.4678 17.7242C43.2926 17.1973 42.7784 16.9339 41.936 16.9449L34.7698 16.9888L32.5925 10.1282C32.33 9.31593 31.9361 8.90979 31.3672 8.90979C30.8091 8.90979 30.4153 9.31593 30.1527 10.1282L27.9755 16.9888L20.8093 16.9449C19.9668 16.9339 19.4526 17.1973 19.2776 17.7242C19.0916 18.2731 19.376 18.778 20.0544 19.261L25.8968 23.4761L23.6101 30.3037C23.3366 31.105 23.4351 31.6648 23.8836 32.0051ZM25.4591 29.8317C25.4372 29.8098 25.4482 29.7988 25.4591 29.7329L27.6363 23.4542C27.7895 23.026 27.702 22.6858 27.3191 22.4223L21.8705 18.6463C21.8158 18.6133 21.8049 18.5914 21.8158 18.5584C21.8268 18.5255 21.8487 18.5255 21.9143 18.5255L28.5335 18.6463C28.9821 18.6572 29.2665 18.4706 29.4088 18.0206L31.3125 11.665C31.3234 11.5991 31.3453 11.5772 31.3672 11.5772C31.4 11.5772 31.4219 11.5991 31.4328 11.665L33.3365 18.0206C33.4787 18.4706 33.7633 18.6572 34.2117 18.6463L40.8309 18.5255C40.8966 18.5255 40.9185 18.5255 40.9294 18.5584C40.9404 18.5914 40.9185 18.6133 40.8747 18.6463L35.4262 22.4223C35.0432 22.6858 34.9557 23.026 35.1089 23.4542L37.2862 29.7329C37.2971 29.7988 37.308 29.8098 37.2862 29.8317C37.2643 29.8646 37.2315 29.8426 37.1877 29.8098L31.9251 25.7813C31.575 25.5068 31.1702 25.5068 30.8201 25.7813L25.5576 29.8098C25.5138 29.8426 25.481 29.8646 25.4591 29.8317Z" fill="white"/>
</g>
<defs>
<clipPath id="clip0_33_248">
<rect width="43" height="41" fill="white" transform="translate(0.519287 0.841064)"/>
</clipPath>
</defs>
</svg>
